<svg width="17" height="17" viewBox="0 0 17 17" fill="none" xmlns="http://www.w3.org/2000/svg">
<path d="M8.77751 5.35661C7.30855 5.35661 6.10976 6.55542 6.10976 8.02441C6.10976 9.49341 7.30855 10.6922 8.77751 10.6922C10.2465 10.6922 11.4453 9.49341 11.4453 8.02441C11.4453 6.55542 10.2465 5.35661 8.77751 5.35661ZM16.7788 8.02441C16.7788 6.91967 16.7888 5.82493 16.7267 4.72218C16.6647 3.44132 16.3725 2.30455 15.4359 1.36792C14.4973 0.429282 13.3625 0.139086 12.0817 0.0770445C10.977 0.0150026 9.88224 0.0250094 8.77951 0.0250094C7.67479 0.0250094 6.58007 0.0150026 5.47734 0.0770445C4.1965 0.139086 3.05976 0.431284 2.12314 1.36792C1.18452 2.30655 0.894333 3.44132 0.832293 4.72218C0.770252 5.82693 0.780258 6.92167 0.780258 8.02441C0.780258 9.12716 0.770252 10.2239 0.832293 11.3266C0.894333 12.6075 1.18653 13.7443 2.12314 14.6809C3.06176 15.6195 4.1965 15.9097 5.47734 15.9718C6.58207 16.0338 7.67679 16.0238 8.77951 16.0238C9.88424 16.0238 10.979 16.0338 12.0817 15.9718C13.3625 15.9097 14.4993 15.6175 15.4359 14.6809C16.3745 13.7423 16.6647 12.6075 16.7267 11.3266C16.7908 10.2239 16.7788 9.12916 16.7788 8.02441ZM8.77751 12.1292C6.50602 12.1292 4.67282 10.2959 4.67282 8.02441C4.67282 5.75288 6.50602 3.91964 8.77751 3.91964C11.049 3.91964 12.8822 5.75288 12.8822 8.02441C12.8822 10.2959 11.049 12.1292 8.77751 12.1292ZM13.0503 4.71017C12.52 4.71017 12.0917 4.28189 12.0917 3.75153C12.0917 3.22117 12.52 2.79288 13.0503 2.79288C13.5807 2.79288 14.009 3.22117 14.009 3.75153C14.0091 3.87746 13.9844 4.00219 13.9363 4.11857C13.8882 4.23495 13.8176 4.3407 13.7285 4.42975C13.6395 4.5188 13.5337 4.5894 13.4174 4.63752C13.301 4.68564 13.1763 4.71033 13.0503 4.71017Z" fill="white"/>
</svg>
