<svg width="19" height="13" viewBox="0 0 19 13" fill="none" xmlns="http://www.w3.org/2000/svg">
<path d="M18.4028 1.90813C18.3008 1.5446 18.1023 1.21548 17.8283 0.955758C17.5466 0.688047 17.2013 0.496547 16.825 0.399333C15.4167 0.0281326 9.77442 0.0281327 9.77442 0.0281327C7.42223 0.00137081 5.07062 0.119076 2.73286 0.380585C2.35656 0.484981 2.01188 0.68076 1.7295 0.950509C1.45204 1.21747 1.25106 1.54668 1.14608 1.90738C0.89388 3.26601 0.771346 4.64552 0.780126 6.02733C0.771127 7.40789 0.893361 8.78695 1.14608 10.1473C1.24881 10.5065 1.44904 10.8342 1.72725 11.0989C2.00546 11.3636 2.35191 11.5548 2.73286 11.6561C4.15992 12.0265 9.77442 12.0265 9.77442 12.0265C12.1296 12.0533 14.4842 11.9356 16.825 11.6741C17.2013 11.5769 17.5466 11.3854 17.8283 11.1176C18.1022 10.858 18.3005 10.5288 18.402 10.1653C18.6608 8.80717 18.7866 7.42708 18.7777 6.04457C18.7972 4.65621 18.6715 3.26962 18.4028 1.90738V1.90813ZM7.98066 8.59498V3.46042L12.675 6.02808L7.98066 8.59498Z" fill="white"/>
</svg>
